<?xml version="1.0" encoding="utf-8"?>
<!-- Generator: Adobe Illustrator 21.1.0, SVG Export Plug-In . SVG Version: 6.00 Build 0)  -->
<svg version="1.1" id="Layer_1" xmlns="http://www.w3.org/2000/svg" xmlns:xlink="http://www.w3.org/1999/xlink" x="0px" y="0px"
	 viewBox="0 0 1140.7 1140.7" style="enable-background:new 0 0 1140.7 1140.7;" xml:space="preserve">
<style type="text/css">
	.st0{fill:#FFFFFF;stroke:#000000;stroke-width:20;stroke-miterlimit:10;}
	.st1{fill:#FFFFFF;stroke:#000000;stroke-width:11;stroke-miterlimit:10;}
	.st2{fill:none;stroke:#FFFFFF;stroke-width:40;stroke-miterlimit:10;}
	.st3{fill:none;stroke:#FFFFFF;stroke-width:40;stroke-miterlimit:10;stroke-dasharray:12.7179,12.7179;}
	.st4{fill:none;stroke:#FFFFFF;stroke-width:40;stroke-miterlimit:10;stroke-dasharray:10.9524,10.9524;}
	.st5{fill:none;stroke:#FFFFFF;stroke-width:40;stroke-miterlimit:10;stroke-dasharray:11.4997,11.4997;}
	.st6{fill:none;stroke:#FFFFFF;stroke-width:40;stroke-miterlimit:10;stroke-dasharray:10.7778,10.7778;}
	.st7{fill:#13213C;}
	.st8{fill:#FFFFFF;}
</style>
<g>
	<g>
		<rect x="161.1" y="883.6" width="151.6" height="22.7"/>
	</g>
	<g>
		<path d="M312.7,835.4H161.1v-48.2h151.6V835.4z M312.7,739H161.1v-48.2h151.6V739z M312.7,642.6H161.1v-48.2h151.6V642.6z
			 M312.7,546.3H161.1v-48.2h151.6V546.3z M312.7,449.9H161.1v-48.2h151.6V449.9z M312.7,353.5H161.1v-48.2h151.6V353.5z"/>
	</g>
	<g>
		<rect x="161.1" y="234.4" width="151.6" height="22.7"/>
	</g>
</g>
<g>
	<g>
		<rect x="383.4" y="883.6" width="151.6" height="22.7"/>
	</g>
	<g>
		<path d="M535,842.1H383.4v-41.5H535V842.1z M535,759.1H383.4v-41.5H535V759.1z M535,676.1H383.4v-41.5H535V676.1z"/>
	</g>
	<g>
		<rect x="383.4" y="570.4" width="151.6" height="22.7"/>
	</g>
</g>
<g>
	<g>
		<rect x="605.7" y="883.6" width="151.6" height="22.7"/>
	</g>
	<g>
		<path d="M757.3,840H605.7v-43.6h151.6V840z M757.3,752.9H605.7v-43.6h151.6V752.9z M757.3,665.7H605.7v-43.6h151.6V665.7z
			 M757.3,578.6H605.7V535h151.6V578.6z M757.3,491.4H605.7v-43.6h151.6V491.4z"/>
	</g>
	<g>
		<rect x="605.7" y="381.5" width="151.6" height="22.7"/>
	</g>
</g>
<g>
	<g>
		<rect x="828" y="883.6" width="151.6" height="22.7"/>
	</g>
	<g>
		<rect x="828" y="801.9" width="151.6" height="40.8"/>
	</g>
	<g>
		<rect x="828" y="738.3" width="151.6" height="22.7"/>
	</g>
</g>
</svg>
