<?xml version="1.0" standalone="no"?>
<!DOCTYPE svg PUBLIC "-//W3C//DTD SVG 20010904//EN"
 "http://www.w3.org/TR/2001/REC-SVG-20010904/DTD/svg10.dtd">
<svg version="1.0" xmlns="http://www.w3.org/2000/svg"
 width="16.000000pt" height="16.000000pt" viewBox="0 0 16.000000 16.000000"
 preserveAspectRatio="xMidYMid meet">
<metadata>
Created by potrace 1.11, written by Peter Selinger 2001-2013
</metadata>
<g transform="translate(0.000000,16.000000) scale(0.002000,-0.002000)"
fill="#000000" stroke="none">
<path d="M0 4000 l0 -4000 4000 0 4000 0 0 4000 0 4000 -4000 0 -4000 0 0
-4000z m2060 1288 c-11 -29 -20 -54 -20 -55 0 -2 -71 -3 -158 -3 -119 0 -170
4 -205 16 -52 18 -60 25 -51 48 15 39 52 45 256 46 l198 0 -20 -52z m94 10
c23 -33 23 -389 1 -408 -14 -11 -22 -7 -55 25 l-40 39 0 137 c0 116 3 146 21
193 19 48 24 54 40 46 10 -6 25 -20 33 -32z m626 -10 c-11 -29 -20 -54 -20
-55 0 -2 -81 -3 -180 -3 -143 0 -188 3 -222 17 -54 20 -60 26 -52 47 15 39 49
45 276 46 l218 0 -20 -52z m600 40 c0 -7 -7 -32 -16 -55 l-17 -43 -157 0
c-117 0 -168 4 -203 16 -52 18 -60 25 -51 48 15 39 52 45 252 46 144 0 192 -3
192 -12z m84 -30 c23 -33 23 -389 1 -408 -14 -11 -22 -7 -55 25 l-40 39 0 138
c0 114 3 146 21 193 18 48 23 54 39 45 11 -6 26 -20 34 -32z m1348 11 c34 -34
32 -39 -30 -62 -60 -24 -367 -24 -435 -1 -52 18 -60 25 -51 48 15 39 51 45
272 46 l214 0 30 -31z m848 25 c0 -4 -8 -28 -17 -55 l-18 -49 -159 0 c-225 0
-304 31 -230 89 25 20 40 21 225 21 110 0 199 -3 199 -6z m720 0 c0 -4 -8 -28
-17 -55 l-18 -49 -179 0 c-144 0 -188 3 -227 17 -31 11 -49 24 -49 34 0 17 25
43 50 52 21 8 440 8 440 1z m-2686 -47 c12 -32 16 -78 16 -188 l0 -145 -39
-38 c-22 -21 -44 -35 -50 -32 -7 5 -11 73 -11 204 0 163 3 201 16 220 24 35
49 28 68 -21z m1360 21 c13 -19 16 -57 16 -220 0 -131 -4 -199 -11 -204 -6 -3
-28 11 -50 32 l-39 38 0 141 c0 103 4 154 16 188 18 53 42 62 68 25z m678 5
c16 -15 18 -35 18 -219 0 -136 -4 -205 -11 -210 -6 -3 -28 11 -50 32 l-39 38
0 141 c0 196 27 268 82 218z m-4055 -89 l43 -17 0 -126 0 -127 -39 -38 c-22
-21 -44 -35 -50 -32 -12 8 -16 356 -4 356 4 0 27 -7 50 -16z m680 0 l43 -17 0
-131 0 -132 -34 -33 c-61 -59 -66 -47 -66 154 0 96 3 175 7 175 4 0 27 -7 50
-16z m626 0 l47 -16 0 -127 0 -127 -39 -38 c-22 -21 -44 -35 -50 -32 -7 5 -11
66 -11 182 0 96 1 174 3 174 2 0 24 -7 50 -16z m2280 -1 l47 -17 0 -126 0
-126 -40 -39 c-33 -32 -41 -36 -55 -25 -12 10 -15 41 -15 181 0 93 3 169 8
169 4 0 28 -8 55 -17z m680 0 l47 -17 0 -126 0 -126 -40 -39 c-33 -32 -41 -36
-55 -25 -12 10 -15 41 -15 181 0 93 3 169 8 169 4 0 28 -8 55 -17z m-1333
-161 c0 -135 -1 -139 -25 -162 l-25 -23 -25 23 c-24 23 -25 27 -25 162 l0 138
50 0 50 0 0 -138z m920 -15 c0 -151 0 -154 -25 -177 l-25 -23 -25 23 c-25 23
-25 26 -25 177 l0 153 50 0 50 0 0 -153z m-3443 -149 c29 -27 29 -36 1 -65
-21 -22 -27 -23 -192 -23 l-170 0 -28 27 -28 27 27 28 27 28 170 0 c160 0 171
-1 193 -22z m685 -5 l28 -27 -27 -28 -27 -28 -170 0 -170 0 -28 27 -28 27 27
28 27 28 170 0 170 0 28 -27z m625 5 c29 -27 29 -36 1 -65 -21 -22 -27 -23
-192 -23 l-170 0 -28 27 -28 27 27 28 27 28 170 0 c160 0 171 -1 193 -22z
m2958 -8 l29 -30 -24 -25 c-23 -25 -25 -25 -200 -25 -175 0 -177 0 -200 25
l-24 25 29 30 29 30 166 0 166 0 29 -30z m-1287 -238 c2 -191 1 -203 -18 -222
-31 -31 -47 -24 -64 27 -12 34 -16 85 -16 187 l0 140 37 38 c21 21 42 37 48
35 6 -2 11 -77 13 -205z m-3348 -23 c0 -125 -3 -154 -20 -194 -17 -41 -22 -45
-40 -35 -36 19 -40 44 -40 237 0 221 4 233 62 176 l38 -37 0 -147z m680 20 l0
-127 -40 -16 c-22 -9 -45 -16 -50 -16 -6 0 -10 65 -10 168 0 199 5 211 62 155
l38 -37 0 -127z m592 164 l38 -37 0 -147 c0 -125 -3 -154 -20 -194 -20 -47
-25 -49 -62 -17 -16 13 -18 37 -18 217 0 111 3 205 7 208 11 11 15 9 55 -30z
m476 25 c16 -16 17 -367 1 -401 -6 -14 -22 -30 -35 -35 -22 -10 -24 -8 -43 44
-18 45 -21 78 -21 191 l0 137 37 38 c41 42 44 43 61 26z m242 -209 c0 -125 -3
-154 -20 -194 -17 -41 -22 -45 -40 -35 -36 19 -40 44 -40 237 0 221 4 233 62
176 l38 -37 0 -147z m877 199 c22 -21 23 -26 23 -209 l0 -188 -27 -21 c-30
-23 -34 -21 -56 38 -13 33 -17 77 -17 199 0 147 1 158 22 180 26 28 26 28 55
1z m685 -15 l38 -37 0 -142 c0 -96 -4 -152 -14 -175 -7 -19 -16 -42 -19 -51
-5 -15 -10 -16 -31 -7 -13 6 -29 22 -35 36 -16 34 -15 385 1 401 17 17 18 16
60 -25z m476 -175 l2 -206 -26 -21 c-14 -11 -30 -19 -34 -16 -5 3 -15 26 -24
52 -12 34 -16 85 -16 187 l0 140 37 38 c21 21 42 37 48 35 6 -2 11 -79 13
-209z m204 175 l38 -37 0 -127 0 -126 -43 -17 c-23 -9 -48 -16 -55 -16 -17 0
-17 331 0 348 17 17 18 16 60 -25z m-3955 -195 c189 -188 192 -195 112 -219
l-40 -13 -160 160 c-156 155 -159 160 -159 201 0 43 0 43 37 43 35 0 48 -11
210 -172z m777 -161 c9 -23 16 -48 16 -55 0 -9 -54 -12 -220 -12 l-221 0 -25
25 c-14 14 -24 31 -22 37 2 6 24 19 48 28 37 15 78 18 226 19 l181 1 17 -43z
m1331 22 c58 -22 61 -25 42 -50 -27 -35 -54 -39 -252 -39 l-196 0 7 22 c3 12
13 36 20 55 l14 33 155 0 c132 0 162 -3 210 -21z m2255 -25 c11 -25 20 -50 20
-55 0 -5 -94 -9 -221 -9 l-221 0 -30 30 c-17 17 -29 33 -27 35 2 2 27 13 54
24 43 17 73 20 228 20 l178 1 19 -46z m-3570 -853 c0 -5 -9 -30 -20 -55 l-19
-46 -178 1 c-148 0 -186 3 -223 18 -54 22 -60 41 -24 70 25 20 38 21 245 21
126 0 219 -4 219 -9z m640 2 c0 -5 -8 -29 -17 -55 l-17 -48 -160 1 c-132 0
-169 3 -206 18 -54 22 -60 41 -24 70 25 20 38 21 225 21 110 0 199 -3 199 -7z
m84 -35 c23 -33 23 -389 1 -408 -14 -11 -22 -7 -56 26 l-40 39 3 155 c3 121 8
163 21 193 15 32 20 36 37 27 10 -6 26 -20 34 -32z m596 35 c0 -5 -8 -29 -17
-55 l-17 -48 -160 1 c-132 0 -169 3 -206 18 -54 22 -60 41 -24 70 25 20 38 21
225 21 110 0 199 -3 199 -7z m84 -35 c23 -33 23 -389 1 -408 -14 -11 -22 -7
-55 25 l-40 39 0 142 c0 96 4 152 14 175 7 19 16 42 19 52 5 14 11 16 26 7 11
-5 27 -20 35 -32z m636 35 c0 -5 -8 -29 -17 -55 l-17 -48 -175 0 c-148 0 -184
3 -226 19 -27 10 -51 24 -53 30 -2 6 8 22 22 36 l25 25 221 0 c121 0 220 -3
220 -7z m654 -14 c36 -29 30 -48 -24 -70 -38 -15 -74 -18 -220 -18 -146 0
-182 3 -220 18 -54 22 -60 41 -24 70 25 20 38 21 244 21 206 0 219 -1 244 -21z
m-3127 -95 l43 -17 0 -126 0 -127 -40 -39 c-33 -32 -41 -36 -55 -25 -12 10
-15 41 -15 181 0 126 3 169 12 169 7 0 32 -7 55 -16z m680 0 l43 -17 0 -126 0
-127 -39 -38 c-22 -21 -44 -35 -50 -32 -12 8 -16 356 -4 356 4 0 27 -7 50 -16z
m683 0 l40 -16 0 -127 0 -127 -39 -38 c-22 -21 -44 -35 -50 -32 -14 9 -15 356
-1 356 5 0 28 -7 50 -16z m680 0 l40 -16 0 -127 0 -127 -39 -38 c-22 -21 -44
-35 -50 -32 -14 9 -15 356 -1 356 5 0 28 -7 50 -16z m627 0 l43 -17 0 -126 0
-127 -39 -38 c-22 -21 -44 -35 -50 -32 -12 8 -16 356 -4 356 4 0 27 -7 50 -16z
m-1047 -172 c0 -153 -1 -159 -23 -180 l-23 -22 -27 28 c-27 28 -27 29 -27 180
l0 152 50 0 50 0 0 -158z m-1210 -157 l24 -25 -29 -30 c-25 -26 -36 -30 -84
-30 -46 0 -59 4 -83 27 l-28 27 27 28 c24 25 34 28 88 28 53 0 65 -4 85 -25z
m680 0 l24 -25 -29 -30 -29 -30 -166 0 -166 0 -29 30 -29 30 24 25 c23 25 25
25 200 25 175 0 177 0 200 -25z m1357 3 c29 -27 29 -36 1 -65 -21 -22 -27 -23
-192 -23 l-170 0 -28 27 -28 27 27 28 27 28 170 0 c160 0 171 -1 193 -22z
m633 -3 l24 -25 -29 -30 -29 -30 -166 0 -166 0 -29 30 -29 30 24 25 c23 25 25
25 200 25 175 0 177 0 200 -25z m-3078 -82 l38 -37 0 -127 0 -127 -47 -16
c-26 -9 -50 -16 -55 -16 -14 0 -10 334 4 348 17 17 18 16 60 -25z m476 -175
l2 -206 -27 -21 c-30 -24 -34 -22 -56 37 -13 32 -17 76 -17 184 l0 142 37 38
c21 21 42 37 48 35 6 -2 11 -79 13 -209z m204 175 l38 -37 0 -141 c0 -115 -4
-149 -19 -190 -20 -52 -32 -56 -63 -28 -16 14 -18 38 -18 218 0 111 3 205 7
208 11 11 15 9 55 -30z m476 25 c8 -8 12 -67 12 -199 0 -181 -1 -189 -22 -213
-35 -39 -47 -36 -69 19 -15 41 -19 75 -19 190 l0 139 37 38 c41 42 44 43 61
26z m204 -25 l38 -37 0 -141 c0 -196 -27 -268 -82 -218 -16 15 -18 35 -18 218
0 111 3 205 7 208 11 11 15 9 55 -30z m476 25 c8 -8 12 -67 12 -199 0 -181 -1
-189 -22 -213 -35 -39 -47 -36 -69 19 -15 41 -19 75 -19 190 l0 139 37 38 c41
42 44 43 61 26z m204 -25 l38 -37 0 -127 0 -127 -47 -16 c-26 -9 -48 -16 -50
-16 -6 0 -3 347 4 353 11 11 15 9 55 -30z m1106 -175 c2 -185 1 -206 -15 -220
-32 -29 -44 -25 -64 27 -15 41 -19 75 -19 190 l0 139 37 38 c21 21 42 37 48
35 6 -2 11 -79 13 -209z m-2775 -185 c9 -27 17 -51 17 -55 0 -5 -90 -8 -199
-8 -193 0 -201 1 -225 23 -38 34 -36 47 14 67 37 15 75 18 211 19 l165 1 17
-47z m2081 0 c9 -26 16 -51 16 -55 0 -5 -101 -8 -226 -6 -225 3 -226 3 -245
27 -26 32 -21 43 32 63 35 14 80 17 226 17 l181 1 16 -47z m589 0 c9 -27 17
-51 17 -55 0 -5 -89 -8 -199 -8 -185 0 -200 1 -225 21 -38 30 -33 52 17 71 32
12 83 16 208 17 l165 1 17 -47z"/>
</g>
</svg>
