<?xml version="1.0" standalone="no"?>
<!DOCTYPE svg PUBLIC "-//W3C//DTD SVG 20010904//EN"
 "http://www.w3.org/TR/2001/REC-SVG-20010904/DTD/svg10.dtd">
<svg version="1.0" xmlns="http://www.w3.org/2000/svg"
 width="16.000000pt" height="16.000000pt" viewBox="0 0 16.000000 16.000000"
 preserveAspectRatio="xMidYMid meet">
<metadata>
Created by potrace 1.11, written by Peter Selinger 2001-2013
</metadata>
<g transform="translate(0.000000,16.000000) scale(0.001402,-0.001402)"
fill="#000000" stroke="none">
<path d="M0 5705 l0 -5705 5705 0 5705 0 0 5705 0 5705 -5705 0 -5705 0 0
-5705z m3130 3245 l0 -120 -757 2 -758 3 -3 104 c-1 58 0 111 2 118 4 11 145
13 761 13 l755 0 0 -120z m0 -835 l0 -245 -760 0 -760 0 0 238 c0 131 3 242 7
245 3 4 345 7 760 7 l753 0 0 -245z m4448 -637 l-3 -113 -757 -3 -758 -2 0
115 0 115 760 0 761 0 -3 -112z m-4448 -328 l0 -240 -760 0 -760 0 0 240 0
240 760 0 760 0 0 -240z m4450 -440 l0 -220 -760 0 -760 0 0 220 0 220 760 0
760 0 0 -220z m-4450 -525 l0 -245 -757 2 -758 3 -3 243 -2 242 760 0 760 0 0
-245z m4450 -345 l0 -220 -760 0 -760 0 0 220 0 220 760 0 760 0 0 -220z
m-2225 -250 l0 -115 -760 0 -760 0 -3 104 c-1 58 0 111 2 118 5 11 142 13 763
11 l758 -3 0 -115z m-2225 -365 l0 -245 -760 0 -760 0 0 238 c0 131 3 242 7
245 3 4 345 7 760 7 l753 0 0 -245z m4450 -255 l0 -220 -760 0 -760 0 0 220 0
220 760 0 760 0 0 -220z m-2222 -117 l-3 -208 -760 0 -760 0 -3 208 -2 207
765 0 765 0 -2 -207z m-2228 -593 l0 -240 -760 0 -760 0 0 240 0 240 760 0
760 0 0 -240z m4448 -162 l2 -218 -760 0 -760 0 0 220 0 220 758 -2 757 -3 3
-217z m-2220 -75 l-3 -208 -760 0 -760 0 -3 208 -2 207 765 0 765 0 -2 -207z
m4442 -113 l0 -120 -757 2 -758 3 -3 104 c-1 58 0 111 2 118 4 11 145 13 761
13 l755 0 0 -120z m-6670 -615 l0 -245 -760 0 -760 0 0 245 0 245 760 0 760 0
0 -245z m4448 -67 l2 -218 -760 0 -760 0 0 220 0 220 758 -2 757 -3 3 -217z
m-2220 -35 l-3 -208 -760 0 -760 0 -3 208 -2 207 765 0 765 0 -2 -207z m4442
-8 l0 -205 -760 0 -760 0 0 205 0 205 760 0 760 0 0 -205z m-6670 -730 l0
-115 -760 0 -760 0 0 115 0 115 760 0 760 0 0 -115z m2228 3 l-3 -113 -760 0
-760 0 -3 113 -3 112 766 0 766 0 -3 -112z m2222 -3 l0 -115 -760 0 -760 0 0
115 0 115 760 0 760 0 0 -115z m2220 0 l0 -115 -760 0 -760 0 0 115 0 115 760
0 760 0 0 -115z"/>
</g>
</svg>
